IKResults
version=1
nRows=12
nColumns=44
inDegrees=yes

Units are S.I. units (second, meters, Newtons, ...)
Angles are in degrees.

endheader
time	ground_spine_rot_x	ground_spine_rot_y	ground_spine_rot_z	ground_spine_tx	ground_spine_ty	ground_spine_tz	clav_prot	clav_elev	scapula_abduction	scapula_elevation	scapula_upward_rot	scapula_winging	plane_elv	shoulder_elv	axial_rot	elbow_flexion	pro_sup	clav_prot_l	clav_elev_l	pitch2	roll2	yaw2	aux7jnt_r3	aux7jnt_r1	aux7jnt_r2	aux6jnt_r3	aux6jnt_r1	aux6jnt_r2	aux5jnt_r3	aux5jnt_r1	aux5jnt_r2	aux4jnt_r3	aux4jnt_r1	aux4jnt_r2	aux3jnt_r3	aux3jnt_r1	aux3jnt_r2	pitch1	roll1	yaw1	aux1jnt_r3	aux1jnt_r1	aux1jnt_r2
     72.63000000	      0.99916581	     -3.97220865	     -0.84242842	     -0.84667575	      1.09677467	      0.92286047	    -20.41341499	     -2.31056608	     11.70734515	    -16.59646751	     11.99877307	     15.70231818	    -67.94112602	     38.23179809	     52.42371525	      0.00000000	     34.32000000	     30.42326055	     -1.16071730	      0.17850563	     -0.02820439	      0.01271720	      1.91256652	     -0.22139077	      0.13698462	      2.25007275	     -0.25371098	      0.15957242	      2.25007275	     -0.34905410	      0.15957242	      1.68755456	     -0.34905410	      0.15957242	      1.12503637	     -0.31673481	      0.06849231	     -0.22671666	      0.02065468	      0.00114963	     -7.22238527	      0.59171292	      0.00731150
     72.64000000	      1.01441546	     -3.97437919	     -0.90404952	     -0.84672277	      1.09672696	      0.92269547	    -20.39771786	     -2.27385394	     11.71909184	    -16.56064121	     11.99877145	     15.67979369	    -67.81895580	     38.21705713	     50.27975702	      0.00000000	     34.32000000	     30.42326055	     -1.16071730	      0.19539740	     -0.02942031	      0.01377101	      2.09355031	     -0.23093520	      0.14833587	      2.46299433	     -0.26464878	      0.17279540	      2.46299433	     -0.36410226	      0.17279540	      1.84724575	     -0.36410226	      0.17279540	      1.23149716	     -0.33038964	      0.07416793	     -0.22378776	      0.02118552	      0.00086339	     -7.12908083	      0.60692046	      0.00549103
     72.65000000	      1.05584417	     -3.91970762	     -0.99934316	     -0.84691035	      1.09655344	      0.92236619	    -20.62221002	     -2.15465178	     11.33123322	    -16.47585418	     11.99784901	     15.84314887	    -67.66122580	     37.96375783	     47.97590839	      0.00000000	     34.32000000	     30.42326055	     -1.16071730	      0.20991613	     -0.03107777	      0.01181078	      2.24910868	     -0.24394545	      0.12722111	      2.64600373	     -0.27955836	      0.14819898	      2.64600373	     -0.38461478	      0.14819898	      1.98450279	     -0.38461478	      0.14819898	      1.32300186	     -0.34900288	      0.06361056	     -0.21681386	      0.01957173	      0.00159914	     -6.90691707	      0.56068864	      0.01017025
     72.66000000	      1.06600207	     -3.91130239	     -1.04628225	     -0.84684992	      1.09650312	      0.92221940	    -20.58617991	     -2.14551774	     11.38383773	    -16.46322601	     11.99762546	     15.81030069	    -67.64397779	     37.99491770	     48.01087612	      0.00000000	     34.32000000	     30.42326055	     -1.16071730	      0.22190208	     -0.03115235	      0.01208615	      2.37752999	     -0.24453087	      0.13018727	      2.79708725	     -0.28022925	      0.15165423	      2.79708725	     -0.38553777	      0.15165423	      2.09781543	     -0.38553777	      0.15165423	      1.39854362	     -0.34984042	      0.06509363	     -0.20834618	      0.01956353	      0.00184094	     -6.63716702	      0.56045397	      0.01170811
     72.67000000	      1.00300876	     -4.01131433	     -1.13447001	     -0.84703584	      1.09641287	      0.92274799	    -20.36724839	     -2.21759153	     11.74543288	    -16.50444460	     11.99706268	     15.64017690	    -67.48728006	     38.13435247	     49.34036646	      0.00000000	     34.32000000	     30.42326055	     -1.16071730	      0.23895982	     -0.03074847	      0.01403983	      2.56029205	     -0.24136058	      0.15123149	      3.01210091	     -0.27659614	      0.17616849	      3.01210091	     -0.38053936	      0.17616849	      2.25907568	     -0.38053936	      0.17616849	      1.50605046	     -0.34530482	      0.07561574	     -0.20402548	      0.02102267	      0.00281788	     -6.49952494	      0.60225516	      0.01792128
     72.68000000	      1.02886175	     -4.02479377	     -1.18832003	     -0.84694919	      1.09634713	      0.92261260	    -20.38068733	     -2.13856362	     11.69950725	    -16.43334754	     11.99848901	     15.63210252	    -67.54467549	     37.97303330	     54.03011035	      0.00000000	     34.32000000	     30.42326055	     -1.16071730	      0.25572754	     -0.03320547	      0.01501896	      2.73994678	     -0.26064685	      0.16177829	      3.22345890	     -0.29869795	      0.18845439	      3.22345890	     -0.41094691	      0.18845439	      2.41759418	     -0.41094691	      0.18845439	      1.61172945	     -0.37289689	      0.08088915	     -0.20055763	      0.02138323	      0.00196941	     -6.38905157	      0.61258441	      0.01252512
     72.69000000	      1.03177200	     -4.02347268	     -1.23859633	     -0.84685852	      1.09625134	      0.92255329	    -20.38478646	     -2.10520746	     11.68183363	    -16.40290721	     11.99838831	     15.62745308	    -67.53912880	     37.97201589	     52.70203066	      0.00000000	     34.32000000	     30.42326055	     -1.16071730	      0.27082782	     -0.03445221	      0.01544172	      2.90173605	     -0.27043314	      0.16633216	      3.41379875	     -0.30991292	      0.19375916	      3.41379875	     -0.42637640	      0.19375916	      2.56034907	     -0.42637640	      0.19375916	      1.70689938	     -0.38689775	      0.08316608	     -0.19508278	      0.02279256	      0.00277695	     -6.21464235	      0.65295870	      0.01766097
     72.70000000	      1.03731654	     -4.02330266	     -1.32133558	     -0.84703347	      1.09612209	      0.92250316	    -20.36226828	     -2.03015518	     11.69119795	    -16.33078810	     11.99807382	     15.59009608	    -67.38021802	     37.85943314	     52.82571392	      0.00000000	     34.32000000	     30.42326055	     -1.16071730	      0.28636363	     -0.03754375	      0.01629318	      3.06819166	     -0.29470020	      0.17550366	      3.60962840	     -0.33772266	      0.20444298	      3.60962840	     -0.46463687	      0.20444298	      2.70722130	     -0.46463687	      0.20444298	      1.80481420	     -0.42161565	      0.08775183	     -0.18848002	      0.02700680	      0.00379162	     -6.00430200	      0.77368793	      0.02411409
     72.71000000	      1.04619657	     -4.01723267	     -1.38895592	     -0.84712336	      1.09599301	      0.92239262	    -20.35978599	     -1.99452349	     11.68287027	    -16.29745624	     11.99781194	     15.57942081	    -67.30303367	     37.83233682	     52.92477224	      0.00000000	     34.32000000	     30.42326055	     -1.16071730	      0.29944312	     -0.04113956	      0.01716784	      3.20832953	     -0.32292558	      0.18492519	      3.77449607	     -0.37006858	      0.21541805	      3.77449607	     -0.50913820	      0.21541805	      2.83087205	     -0.50913820	      0.21541805	      1.88724804	     -0.46199655	      0.09246260	     -0.17961177	      0.03196931	      0.00491595	     -5.72179112	      0.91585324	      0.03126466
     72.72000000	      1.05579804	     -3.99807217	     -1.45505751	     -0.84720327	      1.09581746	      0.92225850	    -20.33273631	     -1.91586548	     11.69874804	    -16.22174178	     11.99817694	     15.53723545	    -67.17490655	     37.75605270	     52.72768839	      0.00000000	     34.32000000	     30.42326055	     -1.16071730	      0.31366342	     -0.04310552	      0.01707946	      3.36069038	     -0.33835741	      0.18397318	      3.95374370	     -0.38775326	      0.21430906	      3.95374370	     -0.53346869	      0.21430906	      2.96530777	     -0.53346869	      0.21430906	      1.97687185	     -0.48407425	      0.09198659	     -0.17145891	      0.03343047	      0.00536321	     -5.46207008	      0.95771253	      0.03410916
     72.73000000	      1.03607685	     -4.01534866	     -1.52523017	     -0.84728436	      1.09573874	      0.92237765	    -20.31935192	     -1.92554307	     11.72265971	    -16.22916550	     11.99817348	     15.52804345	    -66.99490308	     37.70249874	     52.32223700	      0.00000000	     34.32000000	     30.42326055	     -1.16071730	      0.32851719	     -0.04561559	      0.01766387	      3.51983839	     -0.35806027	      0.19026823	      4.14097620	     -0.41033249	      0.22164212	      4.14097620	     -0.56453306	      0.22164212	      3.10573215	     -0.56453306	      0.22164212	      2.07048810	     -0.51226234	      0.09513412	     -0.16460681	      0.03818559	      0.00618644	     -5.24378660	      1.09393655	      0.03934479
     72.74000000	      1.07259314	     -3.97657467	     -1.58401326	     -0.84728550	      1.09564372	      0.92208909	    -20.33172668	     -1.76433039	     11.65019431	    -16.08161347	     11.99831376	     15.50031292	    -66.87732714	     37.70370931	     51.71329715	      0.00000000	     34.32000000	     30.42326055	     -1.16071730	      0.34281721	     -0.04735012	      0.01744459	      3.67305344	     -0.37167544	      0.18790628	      4.32122875	     -0.42593530	      0.21889070	      4.32122875	     -0.58599932	      0.21889070	      3.24092156	     -0.58599932	      0.21889070	      2.16061438	     -0.53174101	      0.09395314	     -0.15699331	      0.03793242	      0.00661765	     -5.00124764	      1.08668371	      0.04208722
